<?xml version="1.0" encoding="UTF-8" standalone="no"?>
<!DOCTYPE svg PUBLIC "-//W3C//DTD SVG 1.1//EN" "http://www.w3.org/Graphics/SVG/1.1/DTD/svg11.dtd">
<svg version="1.1" xmlns="http://www.w3.org/2000/svg" xmlns:xlink="http://www.w3.org/1999/xlink" preserveAspectRatio="xMidYMid meet" viewBox="0 0 450 450" width="450" height="450"><defs><path d="M0 0L450 0L450 50L0 50L0 0Z" id="eyUzhLWYU"></path><path d="M0 400L450 400L450 450L0 450L0 400Z" id="k1hsDq3AaX"></path><path d="M50 0L50 450L0 450L0 0L50 0Z" id="a3udHoMhay"></path><path d="M450 0L450 450L400 450L400 0L450 0Z" id="h8iEzdCZ59"></path><path d="M150 100L150 250L100 250L100 100L150 100Z" id="c1Iyf4nESe"></path><path d="M100 200L250 200L250 250L100 250L100 200Z" id="c14D7wNxK3"></path><path d="M200 100L350 100L350 150L200 150L200 100Z" id="fa1pymwXD"></path><path d="M350 100L350 250L300 250L300 100L350 100Z" id="f1NtStLCdj"></path><path d="M250 200L250 350L200 350L200 200L250 200Z" id="b4dwU0SRm"></path><path d="M200.01 299.99L350.01 299.99L350.01 349.99L200.01 349.99L200.01 299.99Z" id="aeAhjhtkk"></path><path d="M100 300L156.25 300L156.25 356.25L100 356.25L100 300Z" id="a4qQgDSUKd"></path></defs><g><g><g><g><g><use xlink:href="#eyUzhLWYU" opacity="1" fill="#fff" fill-opacity="1"></use></g><g><use xlink:href="#k1hsDq3AaX" opacity="1" fill="#fff" fill-opacity="1"></use></g><g><use xlink:href="#a3udHoMhay" opacity="1" fill="#fff" fill-opacity="1"></use></g><g><use xlink:href="#h8iEzdCZ59" opacity="1" fill="#fff" fill-opacity="1"></use></g></g><g><g><use xlink:href="#c1Iyf4nESe" opacity="1" fill="#fff" fill-opacity="1"></use></g><g><use xlink:href="#c14D7wNxK3" opacity="1" fill="#fff" fill-opacity="1"></use></g></g><g><g><use xlink:href="#fa1pymwXD" opacity="1" fill="#fff" fill-opacity="1"></use></g><g><use xlink:href="#f1NtStLCdj" opacity="1" fill="#fff" fill-opacity="1"></use></g></g><g><g><use xlink:href="#b4dwU0SRm" opacity="1" fill="#fff" fill-opacity="1"></use></g><g><use xlink:href="#aeAhjhtkk" opacity="1" fill="#fff" fill-opacity="1"></use></g></g><g><use xlink:href="#a4qQgDSUKd" opacity="1" fill="#fff" fill-opacity="1"></use></g></g></g></g></svg>